<svg version="1.1" viewBox="0 0 1017.49 310.967" xmlns="http://www.w3.org/2000/svg" xmlns:xlink="http://www.w3.org/1999/xlink" overflow="hidden"><g id="logo_art" transform="matrix(1,0,0,1,-123.977,-123.925)"><g><g><path d=" M 839.7 198.192 L 817.9 198.192 L 818 360.692 L 906.3 360.692 L 906.3 340.592 L 839.8 340.592 L 839.7 198.192 L 839.7 198.192 Z" id="path14_3_" fill="#8C929D"/><g id="g24_3_" transform="matrix(1,0,0,1,977.327,143.284)"><path d=" M 13 188.892 C 7.5 194.592 -1.6 200.292 -14 200.292 C -30.6 200.292 -37.3 192.092 -37.3 181.392 C -37.3 165.292 -26.1 157.592 -2.3 157.592 C 2.2 157.592 9.4 158.092 13.1 158.792 L 13.1 188.892 L 13 188.892 Z M -9.6 90.392 C -27.2 90.392 -43.4 96.592 -56 107.092 L -48.3 120.492 C -39.4 115.292 -28.5 110.092 -12.8 110.092 C 5.1 110.092 13 119.292 13 134.692 L 13 142.592 C 9.5 141.892 2.3 141.392 -2.1 141.392 C -40.3 141.392 -59.7 154.792 -59.7 182.792 C -59.7 207.892 -44.3 220.492 -21 220.492 C -5.3 220.492 9.8 213.292 15 201.592 L 19 217.492 L 34.4 217.492 L 34.4 134.292 C 34.3 107.992 22.9 90.392 -9.6 90.392 L -9.6 90.392 Z" id="path26_3_" fill="#8C929D"/></g><g id="g28_3_" transform="matrix(1,0,0,1,1099.77,143.129)"><path d=" M -17.7 201.192 C -25.9 201.192 -33.1 200.192 -38.5 197.692 L -38.5 130.392 L -38.5 122.592 C -31.1 116.392 -21.9 111.892 -10.2 111.892 C 10.9 111.892 19 126.792 19 150.892 C 19 185.092 5.9 201.192 -17.7 201.192 M -8.5 90.592 C -28 90.592 -38.5 103.892 -38.5 103.892 L -38.5 82.892 L -38.6 55.092 L -48.4 55.092 L -59.9 55.092 L -59.8 213.592 C -49.1 218.092 -34.5 220.492 -18.6 220.492 C 22.1 220.492 41.7 194.492 41.7 149.592 C 41.6 114.092 23.5 90.592 -8.5 90.592" id="path30_3_" fill="#8C929D"/></g><g id="g32_5_" transform="matrix(1,0,0,1,584.042,143.631)"><path d=" M 18.3 72.192 C 37.6 72.192 50.1 78.592 58.2 85.092 L 67.6 68.792 C 54.9 57.592 37.7 51.592 19.3 51.592 C -27.1 51.592 -59.6 79.892 -59.6 136.992 C -59.6 196.792 -24.5 220.092 15.6 220.092 C 35.7 220.092 52.8 215.392 64 210.692 L 63.5 146.792 L 63.5 139.292 L 63.5 126.692 L 4 126.692 L 4 146.792 L 42 146.792 L 42.5 195.292 C 37.5 197.792 28.9 199.792 17.2 199.792 C -15 199.792 -36.6 179.492 -36.6 136.792 C -36.7 93.292 -14.4 72.192 18.3 72.192" id="path34_5_" fill="#8C929D"/></g><g id="g36_4_" transform="matrix(1,0,0,1,793.569,142.577)"><path d=" M -37.7 55.592 L -59 55.592 L -58.9 82.892 L -58.9 94.092 L -58.9 100.592 L -58.9 111.992 L -58.9 176.992 L -58.9 177.192 C -58.9 203.492 -47.5 221.092 -15 221.092 C -10.5 221.092 -6.1 220.692 -1.9 219.892 L -1.9 200.792 C -5 201.292 -8.3 201.492 -11.8 201.492 C -29.7 201.492 -37.6 192.292 -37.6 176.892 L -37.6 111.892 L -1.9 111.892 L -1.9 94.092 L -37.6 94.092 L -37.7 55.592 L -37.7 55.592 Z" id="path38_4_" fill="#8C929D"/></g><path d=" M 680.4 360.692 L 701.7 360.692 L 701.7 236.692 L 680.4 236.692 L 680.4 360.692 L 680.4 360.692 Z" id="path40_33_" fill="#8C929D"/><path d=" M 680.4 219.592 L 701.7 219.592 L 701.7 198.292 L 680.4 198.292 L 680.4 219.592 L 680.4 219.592 Z" id="path42_3_" fill="#8C929D"/></g><g><path d=" M 292.778 434.892 L 292.778 434.892 L 354.977 243.57 L 230.669 243.57 L 292.778 434.892 L 292.778 434.892 Z" id="path50_5_" fill="#E24329"/><path d=" M 143.549 243.57 L 143.549 243.57 L 124.608 301.696 C 122.894 306.974 124.745 312.8 129.269 316.09 L 292.778 434.891 L 143.549 243.57 L 143.549 243.57 Z" id="path66_12_" fill="#FCA326"/><path d=" M 143.549 243.57 L 230.669 243.57 L 193.175 128.346 C 191.256 122.451 182.893 122.451 180.905 128.346 L 143.549 243.57 L 143.549 243.57 Z" id="path74_5_" fill="#E24329"/><path d=" M 442.097 243.57 L 442.097 243.57 L 460.97 301.696 C 462.684 306.974 460.833 312.8 456.309 316.09 L 292.778 434.892 L 442.097 243.57 L 442.097 243.57 Z" id="path82_12_" fill="#FCA326"/><path d=" M 442.097 243.57 L 354.977 243.57 L 392.402 128.346 C 394.321 122.451 402.684 122.451 404.672 128.346 L 442.097 243.57 L 442.097 243.57 Z" id="path86_5_" fill="#E24329"/><path d=" M 292.778 434.892 L 354.977 243.57 L 442.097 243.57 Z" fill="#FC6D26"/><path d=" M 292.778 434.892 L 143.549 243.57 L 230.669 243.57 Z" fill="#FC6D26"/></g></g></g><g id="spacing_guides" display="none" transform="matrix(1,0,0,1,-123.977,-123.925)"><path d=" M -1 0 L -1 124 L 1267 124 L 1267 0 L -1 0 L -1 0 Z" id="path40_32_" fill="#E828E3" display="inline" opacity="0.1"/><path d=" M -1 435 L -1 559 L 1267 559 L 1267 435 L -1 435 L -1 435 Z" id="path40_31_" fill="#E828E3" display="inline" opacity="0.1"/><path d=" M 261.69 434.551 L 323.69 434.551 L 323.69 124.551 L 261.69 124.551 L 261.69 434.551 L 261.69 434.551 Z" id="path40_30_" fill="#E828E3" display="inline" opacity="0.1"/><path d=" M 462.2 560 L 524.2 560 L 524.2 -1 L 462.2 -1 L 462.2 560 L 462.2 560 Z" id="path40_29_" fill="#E828E3" display="inline" opacity="0.1"/><text font-family="sourcesanspro-semibold" font-size="24" display="inline" transform="matrix(1,0,0,1,256.253,195)">H: 2.5 x</text><text font-family="sourcesanspro-semibold" font-size="24" display="inline" transform="matrix(1,0,0,1,468.473,282.832)">1/2 x</text><text font-family="sourcesanspro-semibold" font-size="24" display="inline" transform="matrix(1,0,0,1,621.288,500.498)">1x</text><text font-family="sourcesanspro-semibold" font-size="24" display="inline" transform="matrix(1,0,0,1,621.288,65.4988)">1x</text><path d=" M 0 560 L 124 560 L 124 -1 L 0 -1 L 0 560 L 0 560 Z" id="path40_27_" fill="#E828E3" display="inline" opacity="0.1"/><text font-family="sourcesanspro-semibold" font-size="24" display="inline" transform="matrix(1,0,0,1,51.2881,282.832)">1x</text><path d=" M 1142 560 L 1266 560 L 1266 -1 L 1142 -1 L 1142 560 L 1142 560 Z" id="path40_3_" fill="#E828E3" display="inline" opacity="0.1"/><text font-family="sourcesanspro-semibold" font-size="24" display="inline" transform="matrix(1,0,0,1,1191.29,282.832)">1x</text></g></svg>